<svg width="16" height="16" viewBox="0 0 16 16" version="1.1" xmlns="http://www.w3.org/2000/svg">
  <path
    d="M9.52158 6.99999H13.0087C13.4246 6.99999 13.7999 7.25936 13.9188 7.64686C14.0908 8.03749 13.9813 8.47811 13.6686 8.75311L5.66231 15.7531C5.30891 16.0594 4.79194 16.0844 4.41414 15.8094C4.03603 15.5344 3.89843 15.0344 4.08263 14.6062L6.48795 8.99999H2.9727C2.58396 8.99999 2.21063 8.74061 2.06399 8.35311C1.91734 7.96249 2.02804 7.52186 2.34189 7.24686L10.3472 0.247427C10.7006 -0.0600103 11.2167 -0.0834165 11.5951 0.191052C11.9735 0.465615 12.1111 0.964677 11.9266 1.39405L9.52158 6.99999Z"
    fill="#85C2E0"/>
</svg>
