<svg width="16" height="16" viewBox="0 0 16 16" fill="none" xmlns="http://www.w3.org/2000/svg">
<path d="M9.52158 6.99987H13.0087C13.4246 6.99987 13.7999 7.25924 13.9188 7.64673C14.0908 8.03735 13.9813 8.47797 13.6686 8.75297L5.66231 15.7528C5.30891 16.0591 4.79194 16.0841 4.41414 15.8091C4.03603 15.5341 3.89843 15.0341 4.08263 14.606L6.48795 8.99984H2.9727C2.58396 8.99984 2.21063 8.74047 2.06399 8.35297C1.91734 7.96235 2.02804 7.52174 2.34189 7.24674L10.3472 0.247423C10.7006 -0.0600092 11.2167 -0.0834151 11.5951 0.191049C11.9735 0.465607 12.1111 0.964661 11.9266 1.39403L9.52158 6.99987Z" fill="#85C2E0"/>
</svg>
